Patient4_TMGait_0pt4_01_right_05_EMG.mot
version=1
nRows=16
nColumns=33
inDegrees=no
endheader
time	1LAddLong	2LGlutMax	3LGlutMed	4LIliopsoas	5LSemiMemb	6LBicFemLong	7LRecFem	8LVastMed	9LVastLat	10LGasMed	11LTibAnt	12lTibPost	13LPeroneusLong	14LSol	15LExtDigLong	16LFlexDigLong	17RAddLong	18RGlutMax	19RGlutMed	20RIliopsoas	21RSemiMemb	22RBicFemLong	23RRecFem	24RVastMed	25RVastLat	26RGasMed	27RTibAnt	28RTibPost	29RPeroneusLong	30RSol	31RExtDigLong	32RFlexDigLong
7.375	-0.002441	-0.16647	0.037689	0.011139	0.000763	-0.024872	0.10941	0.005035	0.016937	-0.22537	0.09613	-0.037994	-0.077362	-0.034943	0.099945	0.43625	0.000458	-0.049438	0.027161	-0.032959	-0.34515	-0.16266	-0.003967	-0.048981	0.007019	-0.006866	0.45548	-0.007629	-0.094147	0.041962	-0.000763	0.013275
7.376	0.000153	-0.17136	-0.01709	0.015564	0.010986	-0.005951	0.11261	0.002899	0.022125	0.09552	0.066986	-0.10468	-0.006866	0.19836	0.12528	0.22369	-0.06546	-0.077667	0.093536	-0.040131	0.11627	-0.1355	-0.007782	-0.10941	-0.015259	-0.007782	0.62668	-0.009308	-0.11368	0.040131	0.002747	0.014191
7.377	-0.005188	-0.14694	-0.070953	0.00351	0.022125	0.09613	0.11688	0.00885	0.018158	1.0063	0.038147	-0.043793	-0.019684	0.94315	0.002441	-0.1799	-0.069733	-0.093842	0.23941	0.002747	0.3595	-0.1326	0.022278	-0.097961	0	-0.001221	0.56778	-0.009613	-0.10971	0.01709	-0.000916	0.011749
7.378	0.009613	-0.13718	-0.066986	-0.011292	0.009003	-0.01358	0.11063	0.006256	0.031128	1.2502	0.032654	0.007324	0.007019	0.9111	-0.084991	-0.78751	-0.027161	-0.059052	0.10407	0.051727	0.15533	-0.19012	0.057373	-0.15793	-0.036621	-0.008545	0.087738	0.006104	-0.10407	-0.046539	0.001678	0.010223
7.379	0.005341	-0.098267	-0.13153	0.006104	0.013275	-0.091858	0.12161	0.002594	0.022125	1.069	0.079193	-0.064545	0.014191	0.34424	-0.14084	0.68832	0.005798	-0.063629	-0.10864	0.11932	0.019073	-0.18845	0.023041	-0.1059	-0.045319	-0.001068	-0.12436	-0.006409	-0.094604	-0.045166	-0.000458	0.007019
7.38	0	-0.10941	-0.050201	0.010529	0.029449	-0.06897	0.12405	0.013275	0.036011	0.40832	0.10681	0.27557	-0.040894	-0.089569	-0.11627	-0.5751	-0.014801	-0.033417	-0.33173	0.19165	-0.037231	-0.18936	0.020142	-0.050964	-0.036163	0.000153	-0.39825	-0.011139	-0.040436	-0.042572	-0.000458	0.017242
7.381	0.007172	-0.1416	0.099945	0.004883	0.027008	0.019684	0.045624	0.00946	0.13916	-0.24139	0.11047	0.087433	-0.07843	-0.089264	-0.063477	0.62775	-0.040741	0.002289	-0.24246	0.097198	0.081177	-0.2182	0.016479	-0.068817	-0.02655	0.000458	-0.41382	-0.008087	0.072784	-0.071411	-0.002747	0.020905
7.382	0.003204	-0.1857	0.091858	0.003204	0.017548	0.059052	-0.037231	0.014496	0.12955	-0.70557	-0.001678	-0.24735	-0.097809	-0.1268	-0.064545	0.36468	-0.062408	-0.031433	-0.25497	0.029297	0.005188	-0.23422	0.015717	-0.071869	-0.024872	-0.001526	-0.13001	-0.00412	0.10361	-0.08316	0.00412	0.019073
7.383	-0.014954	-0.19409	0.11231	-0.018768	-0.00885	0.085754	-0.005951	0.014954	0.12436	-0.71121	-0.012665	-0.36072	-0.076599	-0.36529	-0.042572	-0.91949	-0.071411	-0.041656	-0.002899	0.032349	-0.054474	-0.23056	0.040588	-0.10574	-0.021362	0.005493	-0.12238	-0.008392	0.20721	-0.076904	-0.001068	0.009766
7.384	-0.016174	-0.16281	0.036011	-0.00412	-0.023041	0.028076	0.088043	0.008698	0.11307	-0.29511	0.043488	-0.22858	-0.046082	-0.42282	0.10498	0.066833	-0.055237	-0.075226	-0.05722	0.043335	-0.041351	-0.18936	0.052795	-0.079193	-0.025482	0.014343	-0.19287	-0.007629	0.24979	-0.097656	-0.001068	0.006104
7.385	-0.011749	-0.13077	-0.045776	0.031738	-0.066223	-0.19913	0.065308	0.012207	0.017548	-0.16754	0.018158	-0.15579	-0.015411	-0.17578	0.10773	-0.042114	0.016785	-0.051117	0.068207	0.008545	-0.025635	-0.19043	0.041199	-0.1294	-0.016937	0.009308	-0.11139	-0.00351	0.1796	-0.062714	0.005035	0.004272
7.386	0.006104	-0.14862	-0.028992	0.037994	-0.042114	-0.17471	0.064087	0.00824	-0.18951	-0.19974	-0.21057	-0.21439	0.042877	0.10361	0.28473	-0.18463	0.075989	-0.016022	0.04364	-0.010376	0.049744	-0.18249	0.01297	-0.12344	-0.009003	0.005646	-0.039825	-0.010681	0.034943	-0.05661	-0.001526	0.002594
7.387	0.016785	-0.1207	0.056152	0.00946	0	-0.10864	0.11459	0.00824	-0.20508	-0.33569	0.055695	-0.087585	-0.000305	-0.11856	0.49011	0.08316	0.084991	-0.089569	-0.076904	0.02655	-0.001526	-0.18784	0.004272	-0.087128	-0.00061	0.008698	0.20767	-0.011139	-0.15976	-0.055237	-0.001678	0.008392
7.388	0.020447	-0.10422	0.06134	-0.011292	0.050812	-0.037079	0.15198	0.005951	-0.039215	-0.37628	-0.017853	0.037384	-0.018463	-0.13534	0.2182	0.010071	0.063782	-0.090637	0.074463	-0.001068	-0.24902	-0.20096	-0.027924	-0.13718	-0.010071	0.01297	0.34546	-0.009308	-0.15091	0.018158	-0.000305	0.010681
7.389	0.01236	-0.11871	0.052032	-0.001831	0.062561	-0.028534	0.13916	-0.003662	0.10132	-0.23056	-0.077209	0.091858	-0.02243	0.22293	-0.47562	-0.012817	0.11551	-0.041809	0.13214	-0.064697	-0.27115	-0.12955	-0.029755	-0.085602	-0.009155	0.000305	0.26474	-0.00946	-0.047302	0.055237	-0.002289	0.027466
7.39	0.013885	-0.14038	-0.006714	0.005341	0.065918	0.009613	0.029907	-0.014496	0.1181	-0.27496	0.13016	0.02243	-0.040131	0.38269	-0.11322	-0.20859	0.093231	-0.032196	-0.013275	-0.033722	-0.026093	-0.13733	-0.036163	-0.088348	-0.005493	0	0.44098	-0.012512	-0.066376	0.033417	0.000458	0.021973
